<?xml version="1.0" encoding="utf-8"?>
<!-- Generator: Adobe Illustrator 21.0.2, SVG Export Plug-In . SVG Version: 6.00 Build 0)  -->
<!DOCTYPE svg PUBLIC "-//W3C//DTD SVG 1.1//EN" "http://www.w3.org/Graphics/SVG/1.1/DTD/svg11.dtd">
<svg version="1.1" id="Layer_1" xmlns="http://www.w3.org/2000/svg" xmlns:xlink="http://www.w3.org/1999/xlink" x="0px" y="0px"
	 width="224px" height="108px" viewBox="0 0 224 108" style="enable-background:new 0 0 224 108;" xml:space="preserve">
<style type="text/css">
	.st0{fill:#E71E24;}
</style>
<g>
	<path d="M7.2,42.6h11.9c2.4,0,5.9,0,8.3,2.9c1.4,1.7,1.7,3.6,1.7,5c0,0.9,0,5.6-5.6,6.8c1.2,0.3,3.2,0.6,4.8,2.5
		c1.4,1.7,1.7,3.6,1.7,5c0,2.2-0.9,4.7-2.5,6.1c-2.3,2-4.6,2.2-7,2.2H7.2V42.6 M12.4,55.5h6.7c2.7,0,4.5-1.7,4.5-4.5
		c0-3.6-3.3-4.1-4.6-4.1h-6.6V55.5z M12.4,68.6h7.2c2.8,0,4.9-1.6,4.9-4.4c0-2.5-1.8-4.4-4.9-4.4h-7.2V68.6z"/>
	<path d="M50.5,73.2l-4.8-12.6H38v12.6h-5.5V42.6h13.3c3.8,0,6.1,0.7,8,2.4c1.6,1.4,2.8,3.5,2.8,6.6c0,5.7-3.9,7.4-5.5,8.1l5.4,13.5
		H50.5 M38,56.2h6.9c2.7,0,5.9-0.9,5.9-4.7c0-2.3-1.5-4.5-5.4-4.5H38V56.2z"/>
	<path d="M70.5,73.7c-9.6,0-12.9-8.9-12.9-15.9c0-8.3,4.7-15.6,13.1-15.6c8.6,0,12.9,7.5,12.9,15.7C83.6,67.3,78.5,73.7,70.5,73.7
		 M76.1,50c-1.6-3.2-4.3-3.4-5.5-3.4c-5.8,0-7.1,5.9-7.1,11.4c0,3.6,0.6,11.2,7,11.2c2.8,0,4.8-1.7,5.7-3.5c0.7-1.5,1.4-3.5,1.4-7.8
		C77.7,56.6,77.6,52.8,76.1,50z"/>
	<path d="M108.9,63.2c-1.2,8.1-6.7,10.5-11.6,10.5C87,73.7,85,63.2,85,57.9c0-7.9,3.7-15.7,12.4-15.7c6.5,0,10.3,4.1,11.4,10.8
		l-5.1,0.5c-0.6-2.4-1.6-6.9-6.2-6.9c-6.1,0-6.5,8.4-6.5,11.2c0,8.8,3.5,11.3,6.7,11.3c2.9,0,5.6-2.3,6.1-6.5L108.9,63.2"/>
	<path d="M134.9,73.2H129l-2.5-7.3h-11.7l-2.4,7.3h-4.7l10.2-30.6h6.7L134.9,73.2 M125.1,61.5l-4.4-13.7l-4.5,13.7H125.1z"/>
	<path d="M136.4,42.6h11.3c1.7,0,5.7,0,9.5,3.8c3,3,4.4,7.2,4.4,11.5c0,6.5-3,10.3-5.1,12.2c-1.3,1.1-4.7,3.1-10,3.1h-10V42.6
		 M142,68.7h4.6c4.8,0,8.9-3.7,8.9-11.1c0-5.6-3-10.7-8.2-10.7H142V68.7z"/>
	<polyline points="163.4,73.2 163.4,42.6 183,42.6 183,47.2 168.9,47.2 168.9,55.5 180.2,55.5 180.2,59.9 168.9,59.9 168.9,68.5 
		183.2,68.5 183.2,73.2 163.4,73.2 	"/>
	<path class="st0" d="M216.8,38.9c0,0.5-0.2,1-0.6,1.4c-0.4,0.4-0.9,0.6-1.4,0.6c-0.5,0-1-0.2-1.4-0.6c-0.4-0.4-0.6-0.9-0.6-1.4
		c0-0.5,0.2-1,0.6-1.4c0.4-0.4,0.9-0.6,1.4-0.6c0.5,0,1,0.2,1.4,0.6C216.6,37.9,216.8,38.4,216.8,38.9 M216.5,38.9
		c0-0.5-0.2-0.9-0.5-1.2c-0.3-0.3-0.7-0.5-1.2-0.5c-0.5,0-0.9,0.2-1.2,0.5c-0.3,0.3-0.5,0.7-0.5,1.2c0,0.5,0.2,0.9,0.5,1.2
		c0.3,0.3,0.7,0.5,1.2,0.5c0.5,0,0.9-0.2,1.2-0.5C216.4,39.8,216.5,39.4,216.5,38.9z M215.8,40.1h-0.4l-0.4-1h-0.6v1H214v-2.3h1
		c0.3,0,0.5,0.1,0.6,0.2c0.1,0.1,0.2,0.3,0.2,0.5c0,0.1,0,0.2-0.1,0.4c-0.1,0.1-0.2,0.2-0.3,0.2L215.8,40.1z M214.3,38.8h0.6
		c0.2,0,0.3,0,0.4-0.1c0.1-0.1,0.1-0.2,0.1-0.3c0-0.1,0-0.2-0.1-0.3c-0.1-0.1-0.2-0.1-0.3-0.1h-0.6V38.8z"/>
	<path class="st0" d="M210.6,44.9c1.3-1.1,2.2-2.7,2.2-4.6c0-3.3-2.7-5.9-6-5.9h-23c5.9,6,11.5,9,15.9,10.5
		c-4.4,1.5-10,4.6-15.9,10.5h23c3.3,0,6-2.7,6-5.9C212.8,47.6,211.9,46,210.6,44.9 M206.5,52.2h-13.8c5.3-3.7,9.8-5.5,13.8-5.5
		c1.5,0,2.7,1.2,2.7,2.7C209.2,51,208,52.2,206.5,52.2z M206.5,43c-4,0-8.5-1.8-13.8-5.5h13.8c1.5,0,2.7,1.2,2.7,2.7
		C209.2,41.8,208,43,206.5,43z"/>
</g>
</svg>
