<?xml version="1.0" encoding="utf-8"?>
<!-- Generator: Adobe Illustrator 21.0.2, SVG Export Plug-In . SVG Version: 6.00 Build 0)  -->
<!DOCTYPE svg PUBLIC "-//W3C//DTD SVG 1.1//EN" "http://www.w3.org/Graphics/SVG/1.1/DTD/svg11.dtd">
<svg version="1.1" id="Layer_1" xmlns="http://www.w3.org/2000/svg" xmlns:xlink="http://www.w3.org/1999/xlink" x="0px" y="0px"
	 width="224px" height="108px" viewBox="0 0 224 108" style="enable-background:new 0 0 224 108;" xml:space="preserve">
<style type="text/css">
	.st0{fill:#C72A2E;}
</style>
<g>
	<path d="M77.3,65.9c-7.9,0-11.9-5.7-11.9-12s4.1-11.9,12-11.9c3,0,5.1,0.7,7,1.8l-2.2,3.7c-1.4-0.9-3.1-1.4-4.8-1.3
		c-4.2,0-6.5,3.4-6.5,7.6c0,4.3,2.2,7.9,6.6,7.9c1.9,0,3.7-0.6,5.2-1.8l2.1,3.5C83.5,64.6,80.7,65.9,77.3,65.9z"/>
	<path d="M94.1,51.8c-2.5,0-3.4,2.1-3.4,5.2s1,5.3,3.5,5.3c2.5,0,3.4-2.1,3.4-5.2C97.7,54,96.7,51.8,94.1,51.8z M94.2,65.9
		c-5.9,0-8.5-4.4-8.5-8.8s2.6-8.9,8.5-8.9c5.9,0,8.6,4.4,8.6,8.8C102.8,61.3,100.1,65.9,94.2,65.9L94.2,65.9z"/>
	<path d="M110.2,48.6v10.8c0,1.7,0.6,2.5,2.2,2.5c1.7,0,3-1.6,3.4-2V48.7h4.8v11.9c0,1.7,0.1,3.3,0.5,5h-4.7
		c-0.2-0.7-0.3-1.5-0.3-2.2c-1.3,1.7-3.3,2.7-5.4,2.7c-3.7,0-5.1-2.4-5.1-5.5V48.6H110.2L110.2,48.6z"/>
	<path d="M132.2,65.9c-5.4,0-8.8-3.6-8.8-8.8c0-5.7,3.8-8.9,9-8.9c2.7,0,4.4,0.8,5.2,1.3l-1.5,3.3c-1-0.7-2.3-1-3.5-1
		c-2.7,0-4.1,2.1-4.1,5.1c0,3.1,1.3,5.3,4.2,5.3c1.3,0,2.5-0.3,3.6-1l1.4,3.2C136.9,64.9,135.3,65.9,132.2,65.9z"/>
	<path d="M150.4,65.5V54.7c0-1.7-0.6-2.5-2.2-2.5c-1.7,0-3,1.6-3.4,2v11.3h-4.8V40.6h4.8v10.1c1.3-1.5,3.2-2.4,5.3-2.4
		c3.7,0,5.1,2.4,5.1,5.5v11.8L150.4,65.5L150.4,65.5z"/>
	<path d="M163.8,61.9c0.7,0.3,1.5,0.4,2.3,0.4c2.5,0,4-1.8,4-5.3c0-3.1-1.1-5-3.5-5c-1.1,0-2.1,0.5-2.8,1.3L163.8,61.9L163.8,61.9z
		 M163.8,40.6V50c1.1-1.1,2.6-1.7,4.1-1.7c4.2,0,7.2,2.9,7.2,8.7s-3.9,9-9,9c-3.8,0-6.2-1-7-1.3v-24H163.8L163.8,40.6z"/>
	<path d="M186.4,58.1h-0.6c-2.6,0-4.4,0.8-4.4,2.7c0,1.2,1,1.7,2,1.7c1.2,0,2.3-0.5,3-1.4V58.1L186.4,58.1z M186.9,65.5
		c-0.2-0.6-0.2-1.2-0.3-1.8c-1.2,1.4-2.9,2.2-4.7,2.2c-2.9,0-5.1-1.7-5.1-4.8c0-4.4,4.5-6,9-6h0.6v-0.9c0-1.4-0.6-2.3-2.7-2.3
		c-1.6,0-3.1,0.6-4.3,1.6l-2.1-2.9c1-0.9,3.3-2.4,6.9-2.4c4.7,0,6.9,1.8,6.9,6.3v5.9c0,1.7,0.1,3.4,0.5,5.1L186.9,65.5L186.9,65.5z"
		/>
	<path d="M199.7,65.9c-3.1,0-5-0.9-6-1.6l1.6-3.3c1.2,0.8,2.7,1.3,4.1,1.4c1.7,0,2.7-0.5,2.7-1.5c0-1.1-1.9-1.4-4.3-2.5
		c-2.3-1.1-3.7-2.4-3.7-5c0-3.2,2.5-5.2,6.4-5.2c1.9-0.1,3.8,0.4,5.4,1.3l-1.7,3.2c-1.1-0.7-2.3-1-3.6-1.1c-1.6,0-2.3,0.6-2.3,1.4
		c0,1.1,1.6,1.4,3.5,2.2c2.7,1.1,4.6,2.3,4.6,5.2C206.5,64.1,203.9,65.9,199.7,65.9z"/>
	<path d="M219.3,55c0-1.9-0.8-3.4-2.8-3.4c-1.9,0-3,1.2-3.3,3.4H219.3z M217.5,62.4c1.5,0,3-0.4,4.4-1.2l1.5,3.1
		c-1.1,0.6-2.8,1.6-6.3,1.6c-5.7,0-8.9-3.5-8.9-9s3.7-8.8,8.4-8.8c5.3,0,7.9,3.7,7.3,10h-10.6C213.5,60.8,214.8,62.4,217.5,62.4
		L217.5,62.4z"/>
	<path class="st0" d="M25.8,28.2C11.5,28.3,0,39.8,0,54s11.5,25.7,25.8,25.7C40,79.7,51.5,68.2,51.5,54C51.5,39.8,40,28.2,25.8,28.2
		L25.8,28.2z M43.2,58.5c0.1,1.6-1.1,3-2.7,3.2c-3,0.5-9.4,0.9-14.8,0.9S14,62.3,11,61.7c-1.6-0.2-2.7-1.6-2.7-3.2V48.5
		c0-1.6,1.1-2.9,2.7-3.2c1.5-0.2,3.1-0.3,4.6-0.3c0.6,0,1.1,0.5,1.1,1.2c0,0,0,0,0,0.1v7c3.1,0,5.9-0.2,9-0.2s5.9,0.2,9,0.2v-7
		c0-0.6,0.4-1.2,1.1-1.2c0,0,0,0,0,0c1.5,0,3.1,0.1,4.6,0.3c1.5,0.3,2.6,1.7,2.7,3.2L43.2,58.5L43.2,58.5z"/>
</g>
</svg>
