<?xml version="1.0" encoding="utf-8"?>
<!-- Generator: Adobe Illustrator 21.0.2, SVG Export Plug-In . SVG Version: 6.00 Build 0)  -->
<!DOCTYPE svg PUBLIC "-//W3C//DTD SVG 1.1//EN" "http://www.w3.org/Graphics/SVG/1.1/DTD/svg11.dtd">
<svg version="1.1" id="Layer_1" xmlns="http://www.w3.org/2000/svg" xmlns:xlink="http://www.w3.org/1999/xlink" x="0px" y="0px"
	 width="224px" height="108px" viewBox="0 0 224 108" style="enable-background:new 0 0 224 108;" xml:space="preserve">
<style type="text/css">
	.st0{fill:#007DB3;}
</style>
<g id="layer1_1_" transform="translate(-318.33375,-439.74274)">
	<g id="g3460_2_" transform="matrix(4.579965,0,0,-4.579965,468.34291,456.8459)">
		<path id="path3462_2_" class="st0" d="M-8.3,2.5c-2.9,0-5.5-1.2-7.4-3.1c-1.9-1.9-3.1-4.5-3.1-7.4c0-2.9,1.2-5.5,3.1-7.4
			c1.9-1.9,4.5-3.1,7.4-3.1c2.9,0,5.5,1.2,7.4,3.1C1-13.6,2.2-11,2.2-8.1c0,2.9-1.2,5.5-3.1,7.4C-2.8,1.3-5.4,2.5-8.3,2.5 M-8.3,3.7
			c6.5,0,11.8-5.3,11.8-11.8c0-6.5-5.3-11.8-11.8-11.8c-6.5,0-11.8,5.3-11.8,11.8C-20.1-1.5-14.8,3.7-8.3,3.7"/>
	</g>
	<g id="g3464_2_" transform="matrix(4.579965,0,0,-4.579965,397.87238,588.54693)">
		<path id="path3466_2_" class="st0" d="M1.5,20.8c0,0.7-0.5,1.1-1.1,1.1H0v-2.2h0.4C1,19.7,1.5,20,1.5,20.8 M8.5,20l-2.9-2.3
			L3,19.8c-0.4-0.9-1.3-1.6-2.4-1.6h-2.3v5.1h2.3c1.2,0,2.1-0.8,2.4-1.6l2.7,2.1l1-0.8l-2.4-1.9l0.5-0.4l2.4,1.9l1-0.8L5.6,20
			l0.5-0.4l2.4,1.9v1.8h1.8v-3.6h1.8v-1.5H8.5V20z M14.3,19.7h1.8v-1.5h-3.5v5.1h1.8V19.7z"/>
	</g>
</g>
</svg>
