<?xml version="1.0" encoding="utf-8"?>
<!-- Generator: Adobe Illustrator 21.0.2, SVG Export Plug-In . SVG Version: 6.00 Build 0)  -->
<!DOCTYPE svg PUBLIC "-//W3C//DTD SVG 1.1//EN" "http://www.w3.org/Graphics/SVG/1.1/DTD/svg11.dtd">
<svg version="1.1" id="Layer_1" xmlns="http://www.w3.org/2000/svg" xmlns:xlink="http://www.w3.org/1999/xlink" x="0px" y="0px"
	 width="224px" height="108px" viewBox="0 0 224 108" style="enable-background:new 0 0 224 108;" xml:space="preserve">
<style type="text/css">
	.st0{fill:#F8B432;}
</style>
<g>
	<path d="M60.3,29.9H28.5v9.3h8.9v39H48v-39h10.2L60.3,29.9L60.3,29.9z M2.2,78.1V29.9h23.3v9.6H12.6V49h11.9v9H12.6v10.4h15.5v9.8
		H2.2z M70.4,40.4h-0.3L66,60.9h8.2L70.4,40.4L70.4,40.4z M77.6,78.1l-2-8.8H64.8l-2,8.8H51.9l11.7-48.2h13.7L89,78.1H77.6
		L77.6,78.1z"/>
	<path class="st0" d="M103.6,29.9h-5.5l12,48.2h5.5L103.6,29.9L103.6,29.9z"/>
	<path d="M133.2,32.1v4.1h3.5v2h-3.5v4.3h4.4v2h-6.8V30.1h6.8v2H133.2z M147.3,44.6V34.5h0l-2,8h-1.4l-2-8h0v10.1h-2.3V30.1h3.2
		l1.9,7.8h0l1.9-7.8h3.2v14.5L147.3,44.6L147.3,44.6z M154.7,32.1v4.1h3.5v2h-3.5v4.3h4.4v2h-6.8V30.1h6.8v2H154.7L154.7,32.1z
		 M163.3,36.4h1c1.2,0,1.7-0.6,1.7-1.8v-0.7c0-1.2-0.5-1.8-1.7-1.8h-1V36.4z M164.4,38.5h-1.1v6.1h-2.4V30.1h3.5c2.6,0,4,1.3,4,3.7
		v1c0,1.5-0.6,2.6-1.7,3.2l2.2,6.6h-2.5L164.4,38.5L164.4,38.5z M177.8,33.4v1l-2.3,0.1v-0.9c0-1.2-0.5-1.7-1.4-1.7
		c-0.9,0-1.4,0.5-1.4,1.5v7.9c0,1,0.5,1.5,1.4,1.5c0.9,0,1.4-0.5,1.4-1.7v-2.5h-1.4v-2h3.7v4.7c0,2.2-1.4,3.5-3.8,3.5
		c-2.4,0-3.7-1.3-3.7-3.5v-8c0-2.2,1.4-3.5,3.7-3.5C176.5,29.9,177.8,31.2,177.8,33.4 M180.1,30.1h2.4v14.5h-2.4V30.1z M190.6,44.6
		l-3.2-9.6h0v9.6h-2.3V30.1h2.7l2.8,8.6h0v-8.6h2.3v14.5H190.6z M202.8,33.4v1l-2.3,0.1v-0.9c0-1.2-0.5-1.7-1.4-1.7
		c-0.9,0-1.4,0.5-1.4,1.5v7.9c0,1,0.5,1.5,1.4,1.5c0.9,0,1.4-0.5,1.4-1.7v-2.5h-1.4v-2h3.7v4.7c0,2.2-1.4,3.5-3.8,3.5
		c-2.4,0-3.7-1.3-3.7-3.5v-8c0-2.2,1.4-3.5,3.7-3.5C201.4,29.9,202.8,31.2,202.8,33.4 M134.7,48.8v12.4h-2.4V48.8h-2.6v-2.1h7.5v2.1
		H134.7z M141.1,48.8v4.1h3.5v2h-3.5v4.3h4.4v2h-6.8V46.7h6.8v2H141.1z M154.7,50v1.3l-2.3,0.1v-1.2c0-1.2-0.5-1.7-1.4-1.7
		s-1.4,0.5-1.4,1.5V58c0,1,0.5,1.5,1.4,1.5c0.9,0,1.4-0.5,1.4-1.7v-1.6l2.3,0.1V58c0,2.2-1.4,3.5-3.7,3.5c-2.3,0-3.7-1.3-3.7-3.5v-8
		c0-2.2,1.4-3.5,3.7-3.5C153.3,46.5,154.7,47.8,154.7,50 M162,61.3v-6.3h-2.9v6.3h-2.4V46.7h2.4v6.1h2.9v-6.1h2.4v14.5H162L162,61.3
		z M172.5,61.3l-3.2-9.6h0v9.6H167V46.7h2.7l2.8,8.6h0v-8.6h2.3v14.5H172.5L172.5,61.3z M179.6,50.2v7.5c0,1.1,0.5,1.7,1.5,1.7
		c1,0,1.5-0.6,1.5-1.7v-7.5c0-1.1-0.5-1.7-1.5-1.7C180.1,48.6,179.6,49.2,179.6,50.2 M184.9,50.2v7.6c0,2.3-1.5,3.7-3.9,3.7
		c-2.4,0-3.9-1.4-3.9-3.7v-7.6c0-2.3,1.5-3.7,3.9-3.7C183.4,46.5,184.9,47.9,184.9,50.2 M193.7,59.2v2.1h-6.4V46.7h2.4v12.4H193.7z
		 M197.3,50.2v7.5c0,1.1,0.5,1.7,1.5,1.7c1,0,1.5-0.6,1.5-1.7v-7.5c0-1.1-0.5-1.7-1.5-1.7C197.8,48.6,197.3,49.2,197.3,50.2
		 M202.7,50.2v7.6c0,2.3-1.5,3.7-3.9,3.7c-2.4,0-3.9-1.4-3.9-3.7v-7.6c0-2.3,1.5-3.7,3.9-3.7C201.2,46.5,202.7,47.9,202.7,50.2
		 M212.3,50v1l-2.3,0.1v-0.9c0-1.2-0.5-1.7-1.4-1.7c-0.9,0-1.4,0.5-1.4,1.5V58c0,1,0.5,1.5,1.4,1.5c0.9,0,1.4-0.5,1.4-1.7v-2.5h-1.4
		v-2h3.7V58c0,2.2-1.4,3.5-3.8,3.5c-2.4,0-3.7-1.3-3.7-3.5v-8c0-2.2,1.4-3.5,3.7-3.5C210.9,46.5,212.3,47.8,212.3,50 M218.5,61.3
		h-2.4v-6.6l-3.3-7.9h2.5l2,5.1h0l1.9-5.1h2.5l-3.3,8V61.3L218.5,61.3z M133.1,72.6h2l-1-6.1h-0.1L133.1,72.6z M136,77.9l-0.5-3.3
		h-2.7l-0.5,3.3h-2.4l2.7-14.5h3.1l2.7,14.5L136,77.9L136,77.9z M142.6,75.9h1c1.2,0,1.7-0.6,1.7-1.8v-6.9c0-1.2-0.5-1.8-1.7-1.8h-1
		L142.6,75.9L142.6,75.9z M143.6,63.4c2.6,0,4,1.3,4,3.7v7.2c0,2.4-1.4,3.7-4,3.7h-3.4V63.4L143.6,63.4L143.6,63.4z M151.6,77.9
		L149,63.4h2.4l1.8,11.1h0l1.8-11.1h2.4l-2.7,14.5H151.6z M159.1,63.4h2.4v14.5h-2.4V63.4z M170.6,66.5v0.4l-2.3,0.2v-0.5
		c0-1-0.4-1.5-1.2-1.5c-0.7,0-1.2,0.4-1.2,1.2v0.3c0,0.8,0.5,1.5,2,2.8c2.1,1.8,2.9,3,2.9,4.7v0.7c0,2.1-1.5,3.3-3.7,3.3
		c-2.2,0-3.7-1.2-3.7-3.3v-1l2.3-0.2v1c0,1,0.5,1.5,1.4,1.5c0.7,0,1.3-0.4,1.3-1.4v-0.5c0-0.9-0.5-1.6-2-2.9c-2.1-1.8-2.9-3-2.9-4.6
		v-0.4c0-2.1,1.4-3.3,3.6-3.3C169.2,63.2,170.6,64.4,170.6,66.5 M174.5,66.9v7.5c0,1.1,0.5,1.7,1.5,1.7c1,0,1.5-0.6,1.5-1.7v-7.5
		c0-1.1-0.5-1.7-1.5-1.7C175,65.2,174.5,65.8,174.5,66.9 M179.8,66.9v7.6c0,2.3-1.5,3.7-3.9,3.7c-2.4,0-3.9-1.4-3.9-3.7v-7.6
		c0-2.3,1.5-3.7,3.9-3.7C178.3,63.2,179.8,64.6,179.8,66.9 M184.3,69.8h1c1.2,0,1.7-0.6,1.7-1.8v-0.7c0-1.2-0.5-1.8-1.7-1.8h-1
		L184.3,69.8L184.3,69.8z M185.4,71.8h-1.1v6.1h-2.4V63.4h3.5c2.6,0,4,1.3,4,3.7v1c0,1.5-0.6,2.6-1.7,3.2l2.2,6.6h-2.5L185.4,71.8
		L185.4,71.8z M198.1,66.5v0.4l-2.3,0.2v-0.5c0-1-0.4-1.5-1.2-1.5c-0.7,0-1.2,0.4-1.2,1.2v0.3c0,0.8,0.5,1.5,2,2.8
		c2.1,1.8,2.9,3,2.9,4.7v0.7c0,2.1-1.5,3.3-3.7,3.3c-2.2,0-3.7-1.2-3.7-3.3v-1l2.3-0.2v1c0,1,0.5,1.5,1.4,1.5c0.7,0,1.3-0.4,1.3-1.4
		v-0.5c0-0.9-0.5-1.6-2-2.9c-2.1-1.8-2.9-3-2.9-4.6v-0.4c0-2.1,1.4-3.3,3.6-3.3C196.7,63.2,198.1,64.4,198.1,66.5"/>
</g>
</svg>
