<svg xmlns="http://www.w3.org/2000/svg" width="109.91" height="105.94" viewBox="0 0 109.91 105.94"><defs><style>.cls-1{fill:#f60;}.cls-1,.cls-2{fill-rule:evenodd;}.cls-2{fill:#fff;}</style></defs><title>logo-bug</title><g id="Foreground"><path class="cls-1" d="M9.12,64.8a53,53,0,1,1,53,53A53,53,0,0,1,9.12,64.8ZM112.59,16.89v-.66h-3.91v.66h1.55v4.28H111V16.89ZM119,21.17V16.23h-1.25L116.34,20l-1.48-3.76H113.6v4.94h.82V17h0l1.62,4.13h.52L118.2,17h0v4.13Z" transform="translate(-9.12 -11.82)"/><path class="cls-2" d="M52.67,36.43a2,2,0,0,1,2-2H69.53a2,2,0,0,1,2,2V55.36H90.46a2,2,0,0,1,2,2V72.23a2,2,0,0,1-2,2H71.53V93.16a2,2,0,0,1-2,2H54.67a2,2,0,0,1-2-2V74.23H33.74a2,2,0,0,1-2-2V57.36a2,2,0,0,1,2-2H52.67Z" transform="translate(-9.12 -11.82)"/></g></svg>