<?xml version="1.0" encoding="utf-8"?>
<!-- Generator: Adobe Illustrator 21.0.2, SVG Export Plug-In . SVG Version: 6.00 Build 0)  -->
<!DOCTYPE svg PUBLIC "-//W3C//DTD SVG 1.1//EN" "http://www.w3.org/Graphics/SVG/1.1/DTD/svg11.dtd">
<svg version="1.1" id="Layer_1" xmlns="http://www.w3.org/2000/svg" xmlns:xlink="http://www.w3.org/1999/xlink" x="0px" y="0px"
	 width="224px" height="108px" viewBox="0 0 224 108" style="enable-background:new 0 0 224 108;" xml:space="preserve">
<style type="text/css">
	.st0{fill:#A09E9F;}
	.st1{fill:#3182BC;}
</style>
<g>
	<g>
		<path class="st0" d="M72.3,50.8c0-3.7-2.6-5.8-6-5.8c-3.2,0-4.6,1.9-5.2,3l0,0v-2.5h-4.3v17.1h4.6v-9.8c0-2.6,1.6-4,3.6-4
			c2.9,0,2.9,2.2,2.9,3.4v10.4h4.6V50.8H72.3z M85,57.7c-0.4,1.2-1.7,1.9-2.9,1.9c-3.6,0-3.8-2.9-4.1-4.2h11.9v-0.8
			c0-7.8-4.7-9.5-8-9.5c-7.6,0-8.2,6.6-8.2,8.6c0,7.1,3.7,9.4,8.5,9.4c2.9,0,6.4-1.3,7.6-5.5H85V57.7z M78.3,52.4
			c0.2-2.3,1.4-3.6,3.5-3.6c1.4,0,3.2,0.8,3.5,3.6H78.3L78.3,52.4z M103.2,54.3c0,2-0.8,5.2-3.7,5.2s-4-2.4-4-4.9
			c0-2.8,0.7-5.5,3.8-5.5C102.3,49,103.2,51.5,103.2,54.3L103.2,54.3z M95.8,39.6h-4.6v23.1h4.4v-2.2h0.1c1.1,1.9,3.1,2.6,4.9,2.6
			c5,0,7.2-4.6,7.2-9.2c0-5.9-3.4-8.9-7.1-8.9c-2.9,0-4.2,1.6-4.9,2.6h-0.1L95.8,39.6L95.8,39.6z M124.4,45.5h-4.4v9.8
			c0,3.1-2,3.8-3.5,3.8c-1.4,0-2.9-0.5-2.9-3.1V45.4H109v11.3c0,4.4,2.4,6.4,5.9,6.4c2.4,0,4.2-1.1,5.2-2.9h0.1v2.4h4.3v-17H124.4z
			 M131.8,39.6h-4.6v23.1h4.6V39.6L131.8,39.6z M148.5,50.1c0-4.2-4.4-4.9-6.8-4.9c-3.5,0-7.2,0.7-7.7,6h4.3c0.1-1,0.5-2.4,2.8-2.4
			c1.2,0,3,0.1,3,2c0,1-0.8,1.2-1.6,1.3l-4.1,0.6c-2.9,0.4-5,2.2-5,5.5c0,3.6,2.6,5,5.2,5c3.1,0,4.6-1.4,5.5-2.5
			c0.1,1,0.1,1.2,0.4,2h4.9v-0.7c-0.6-0.2-1-0.6-1-2.6v-9.4H148.5z M144,56.6c0,2-2,3.4-4.1,3.4c-0.8,0-2-0.5-2-2
			c0-1.9,1.4-2.3,3.1-2.5c1.9-0.2,2.6-0.6,3.1-1v2.2H144z"/>
		<path class="st0" d="M161.8,46h-2.2l-3.8,14.3L151.5,46h-1.9l5,16.7h2.3l3.7-14h0.1l3.6,14h2l5.4-16.7h-1.9l-4.3,14.1L161.8,46
			L161.8,46z M179.4,63.2c-4.2-0.1-7.7-3-7.7-8.8c0-4.9,2.5-8.8,7.7-8.8c5.3,0,7.7,3.8,7.7,8.8C187.1,59.7,183.9,63.2,179.4,63.2
			L179.4,63.2z M185,54.4c0-4-1.6-7.1-5.6-7.1c-4.1,0-5.6,3.5-5.6,7.1c0,4.2,1.9,7.1,5.6,7.1C183.3,61.4,185,57.9,185,54.4L185,54.4
			z M190.7,54.5c0-3.7,1.2-7,5.5-6.8v-2c-2.8,0-4.4,1-5.4,3.6h-0.1v-3.1h-1.9v16.7h1.9V54.5L190.7,54.5z M199.3,62.7v-6.4l3.1-3
			l6.2,9.4h2.2l-7-10.7l6.2-6h-2.6l-8.2,7.9V39.6h-1.9v23.1H199.3L199.3,62.7z M210.8,57.5h1.9c0.6,2.9,2,4,5,4
			c2.8,0,4.1-1.4,4.1-3.1c0-4.8-10.7-1.4-10.7-8c0-2.8,2.2-4.8,5.9-4.8c3.6,0,6,1.4,6.5,5.3h-1.9c-0.4-2.6-2-3.5-4.6-3.5
			c-2.4,0-3.7,1.2-3.7,2.9c0,4.6,10.7,1.7,10.7,8.2c0,3.1-2.9,4.8-6.8,4.8C213.3,63.2,211,60.7,210.8,57.5z"/>
	</g>
	<g>
		<path class="st1" d="M25.8,44.2V28.8L23,26.2l-0.7-0.6L4.4,36l0.1,1l0.7,3.6l10,5.8c0.8-1,2-1.4,3.4-1.4c1.1,0,2,0.4,2.9,1
			l0.7,0.6l0.7-0.6C23.9,45.1,24.8,44.6,25.8,44.2z"/>
		<path class="st1" d="M14.4,47.9l-10-5.8L1,43.3l-1,0.4v20.6l0.8,0.2l3.6,1.2l5.5-3.2c-1.6-1.2-2.5-3.2-2.5-5
			c0-3.1,2.5-5.9,5.6-6.1l1.2-0.1L14.1,50c0-0.2,0-0.4,0-0.6l0,0l0,0C14.1,49,14.1,48.4,14.4,47.9z"/>
		<path class="st1" d="M12.1,63.5l-6.7,4l-0.7,3.6l-0.2,1l17.9,10.3l0.7-0.6l2.8-2.5V63.7c-4.3,0-8.5,0-12.8,0
			C12.7,63.7,12.4,63.5,12.1,63.5z"/>
		<path class="st1" d="M27.7,63.7v15.6l2.8,2.5l0.7,0.6L49,72l-0.2-1l-0.7-3.6l-6.8-4c-0.5,0.1-0.8,0.1-1.3,0.1L27.7,63.7z"/>
		<path class="st1" d="M43.4,62.5l5.6,3.2l3.5-1.1l0.8-0.2V43.7l-0.8-0.2L49,42.4l-12.7,7.3c0.1,0.4,0.2,0.8,0.2,1.2l0.2,1.2
			l1.2-0.4c1.8-0.5,3.4-0.4,5,0.7c1.7,1.1,2.9,3,2.9,5.2C45.9,59.6,45,61.4,43.4,62.5z"/>
		<path class="st1" d="M35.5,47.7L48,40.5l0.7-3.6l0.2-1L31.2,25.6l-0.7,0.6l-2.8,2.5v15.1c0.2,0,0.5,0,0.7,0
			C31.4,43.7,34.1,45.3,35.5,47.7z"/>
		<g>
			<polygon class="st1" points="43.9,42.1 47.5,40 48.2,36.3 31.3,26.5 29.7,27.9 			"/>
			<polygon class="st1" points="52.8,57.9 52.8,44.1 49.2,43 42,47.1 			"/>
			<path class="st1" d="M33.6,64.3l10.1,10.1l4.6-2.6L47.4,68l-6.5-3.7c-0.4,0-0.7,0.1-1.1,0.1L33.6,64.3z"/>
			<path class="st1" d="M12.5,64.1l-3.8,2.2L23,80.7l2-1.9V64.1c-4.1,0-8,0-12.1,0C12.7,64.3,12.6,64.3,12.5,64.1z"/>
			<path class="st1" d="M13.7,48.3l-9.4-5.4l-3.6,1.2v2.5l7.2,7.2c1.1-1.8,3-3,5.2-3.1h0.6v-0.6c0-0.2-0.1-0.5,0-0.7l0,0
				C13.6,49.1,13.6,48.8,13.7,48.3z"/>
			<path class="st1" d="M25.1,43.9V29.1l-2.9-2.5l-11.8,6.7l12.1,12.1l0.2-0.1C23.4,44.7,24.2,44.2,25.1,43.9z"/>
		</g>
	</g>
</g>
</svg>
