<?xml version="1.0" encoding="utf-8"?>
<!-- Generator: Adobe Illustrator 21.0.2, SVG Export Plug-In . SVG Version: 6.00 Build 0)  -->
<!DOCTYPE svg PUBLIC "-//W3C//DTD SVG 1.1//EN" "http://www.w3.org/Graphics/SVG/1.1/DTD/svg11.dtd">
<svg version="1.1" id="Layer_1" xmlns="http://www.w3.org/2000/svg" xmlns:xlink="http://www.w3.org/1999/xlink" x="0px" y="0px"
	 width="224px" height="108px" viewBox="0 0 224 108" style="enable-background:new 0 0 224 108;" xml:space="preserve">
<style type="text/css">
	.st0{fill:#008794;}
	.st1{fill:#70C7CE;}
</style>
<g id="outlines_2_">
	<g>
		<path d="M80,65l-5.8-12.2c-1.4-2.9-2.8-6.2-3.3-7.7l-0.1,0.1c0.2,2.2,0.2,4.9,0.3,7.2L71.1,65h-4.2v-26h4.9l6.3,12.7
			c1.2,2.4,2.3,5.5,2.7,6.7l0.1-0.1c-0.1-1.3-0.4-5-0.4-7.4l-0.1-11.9h4.1v26H80z"/>
		<path d="M92.2,56.6v0.3c0,2.6,1,5.4,4.7,5.4c1.8,0,3.3-0.6,4.7-1.9l1.6,2.5c-2,1.7-4.3,2.5-6.8,2.5c-5.4,0-8.8-3.9-8.8-10
			c0-3.3,0.7-5.6,2.4-7.4c1.5-1.8,3.4-2.6,5.8-2.6c1.9,0,3.6,0.5,5.2,2c1.7,1.5,2.5,3.8,2.5,8.3v0.9H92.2z M95.9,48.6
			c-2.3,0-3.6,1.8-3.6,4.9h7C99.3,50.5,98,48.6,95.9,48.6z"/>
		<path d="M125.6,65h-3.9l-2.3-8.8c-0.6-2.3-1.2-5.2-1.2-5.2h-0.1c0,0-0.3,1.9-1.2,5.4l-2.3,8.6h-3.9l-5.2-18.8l4.1-0.6l2.1,9.2
			c0.5,2.4,1,5,1,5h0.1c0,0,0.4-2.5,1.1-5.1l2.4-8.8h4.1l2.1,8.6c0.8,3.1,1.2,5.4,1.2,5.4h0.1c0,0,0.5-2.9,0.9-5.1l2-8.9h4.3
			L125.6,65z"/>
		<path d="M155.1,65l-2.3-4c-1.8-3.2-3-5-4.4-6.4c-0.5-0.5-0.9-0.8-1.7-0.8V65h-4.2v-26h7.9c5.8,0,8.5,3.4,8.5,7.4
			c0,3.7-2.4,7.1-6.5,7.1c0.9,0.5,2.7,3,4,5.2l3.8,6.2H155.1z M149,42.4h-2.4v8.2h2.2c2.3,0,3.5-0.3,4.2-1.1
			c0.7-0.7,1.2-1.8,1.2-3.2C154.3,43.8,152.9,42.4,149,42.4z"/>
		<path d="M165.9,56.6v0.3c0,2.6,1,5.4,4.7,5.4c1.8,0,3.3-0.6,4.7-1.9l1.6,2.5c-2,1.7-4.3,2.5-6.8,2.5c-5.4,0-8.8-3.9-8.8-10
			c0-3.3,0.7-5.6,2.4-7.4c1.5-1.8,3.4-2.6,5.8-2.6c1.9,0,3.6,0.5,5.2,2c1.7,1.5,2.5,3.8,2.5,8.3v0.9H165.9z M169.5,48.6
			c-2.3,0-3.6,1.8-3.6,4.9h7C173,50.5,171.6,48.6,169.5,48.6z"/>
		<path d="M185,65.4c-4.2,0-4.2-3.8-4.2-5.4V43.8c0-2.6-0.1-4-0.4-5.6l4.2-0.9c0.3,1.2,0.3,2.7,0.3,5.2v16.1c0,2.6,0.1,3,0.4,3.4
			c0.2,0.3,0.9,0.5,1.4,0.3l0.7,2.6C186.7,65.2,185.9,65.4,185,65.4z"/>
		<path d="M192.2,43.1c-1.5,0-2.7-1.2-2.7-2.7c0-1.5,1.2-2.8,2.7-2.8c1.5,0,2.7,1.2,2.7,2.8C194.9,41.9,193.7,43.1,192.2,43.1z
			 M190.1,65V46.2l4.2-0.8V65H190.1z"/>
		<path d="M206.1,65.4c-5.2,0-8.1-3.6-8.1-9.8c0-6.9,4.1-10.2,8.4-10.2c2.1,0,3.6,0.5,5.3,2.1l-2.1,2.7c-1.1-1-2.1-1.5-3.2-1.5
			c-1.3,0-2.4,0.7-3,1.9c-0.6,1.2-0.8,2.9-0.8,5.3c0,2.6,0.4,4.2,1.3,5.2c0.6,0.7,1.5,1.1,2.5,1.1c1.3,0,2.6-0.6,3.8-1.9l2,2.5
			C210.5,64.7,208.7,65.4,206.1,65.4z"/>
		<path d="M215.7,65.4c-1.5,0-2.8-1.2-2.8-2.8c0-1.6,1.3-2.8,2.8-2.8c1.5,0,2.8,1.2,2.8,2.8C218.5,64.1,217.2,65.4,215.7,65.4z
			 M215.7,60.3c-1.2,0-2.1,1-2.1,2.2c0,1.2,1,2.3,2.1,2.3c1.2,0,2.1-1,2.1-2.3C217.9,61.3,216.9,60.3,215.7,60.3z M216.3,64.1
			c-0.1-0.2-0.2-0.3-0.3-0.5c-0.3-0.6-0.4-0.7-0.5-0.8c0,0-0.1,0-0.1,0v1.3h-0.6V61h1.2c0.6,0,0.9,0.4,0.9,0.9
			c0,0.5-0.3,0.9-0.7,0.9c0.1,0.1,0.1,0.1,0.1,0.1c0.2,0.2,0.8,1.2,0.8,1.2H216.3z M215.9,61.5c-0.1,0-0.2,0-0.4,0h-0.2v0.8h0.2
			c0.3,0,0.4,0,0.5-0.1c0.1-0.1,0.1-0.2,0.1-0.3C216.2,61.7,216.1,61.6,215.9,61.5z"/>
	</g>
	<g>
		<path class="st0" d="M52.2,49C50,38.8,37.8,32.8,25,35.6C12.2,38.4,3.6,48.9,5.8,59C8.1,69.2,20.2,75.2,33,72.4
			C45.8,69.6,54.4,59.1,52.2,49z M29,63.4c-5.2,0-9.4-4.2-9.4-9.4c0-5.2,4.2-9.4,9.4-9.4c5.2,0,9.4,4.2,9.4,9.4
			C38.4,59.2,34.2,63.4,29,63.4z"/>
		<path class="st1" d="M31.1,40.9c-7.4,0-13.4,6-13.4,13.4c0,7.4,6,13.4,13.4,13.4c7.4,0,13.4-6,13.4-13.4
			C44.5,46.9,38.5,40.9,31.1,40.9z M29,62.2c-4.5,0-8.2-3.7-8.2-8.2c0-4.5,3.7-8.2,8.2-8.2c4.5,0,8.2,3.7,8.2,8.2
			C37.2,58.5,33.5,62.2,29,62.2z"/>
	</g>
</g>
</svg>
