<?xml version="1.0" encoding="utf-8"?>
<!-- Generator: Adobe Illustrator 21.0.2, SVG Export Plug-In . SVG Version: 6.00 Build 0)  -->
<!DOCTYPE svg PUBLIC "-//W3C//DTD SVG 1.1//EN" "http://www.w3.org/Graphics/SVG/1.1/DTD/svg11.dtd">
<svg version="1.1" id="Layer_1" xmlns="http://www.w3.org/2000/svg" xmlns:xlink="http://www.w3.org/1999/xlink" x="0px" y="0px"
	 width="224px" height="108px" viewBox="0 0 224 108" style="enable-background:new 0 0 224 108;" xml:space="preserve">
<style type="text/css">
	.st0{fill:#33609E;}
</style>
<g id="Primary_2_">
	<g id="svg_x2F_logo_x2F_logo_2_">
		<path id="logo_2_" class="st0" d="M93.3,55.8c0-4.8-1.3-6.9-5.2-6.9c-3.8,0-5.1,2.1-5.1,6.8c0,4.8,1.4,7,5.2,7
			C92,62.7,93.3,60.5,93.3,55.8L93.3,55.8z M99.2,55.7C99.2,63,96.3,68,88,68c-7.9,0-11-5.1-11-12.1c0-7.2,3-12.2,11.2-12.2
			C96.2,43.6,99.2,48.6,99.2,55.7z M113.7,49c-2.1,0-3.7,1-4.5,1.9v10c0.7,0.7,2.1,1.7,4.5,1.7c4.1,0,5.3-2.9,5.3-6.8
			C119,51.9,117.9,49,113.7,49z M100.9,78.4v-4.6l2.7-0.7v-24h-3.3v-5h8.5v2.6c1.2-1.5,2.9-3.1,6.4-3.1c6.4,0,9.8,4.4,9.8,12.2
			c0,7.6-3.2,12.1-9.8,12.1c-3.2,0-4.9-1.2-6-2.4v7.9h4.9v5H100.9z M137.6,49c-2.5,0-3.9,1-4.5,1.7v10c0.8,1,2.4,2,4.5,2
			c4.2,0,5.3-3,5.3-6.9C142.9,51.8,141.8,49,137.6,49z M133.1,46.1c1-1.2,2.8-2.5,5.9-2.5c6.7,0,9.8,4.5,9.8,12.1
			c0,7.4-3.4,12.3-9.8,12.3c-3.5,0-5.5-1.1-6.8-2.3l-3,1.8h-1.8V36.8h-3.4v-5h9V46.1z M165.6,53.4c0.1-0.3,0.1-0.6,0.1-0.7
			c0-2.9-1.9-4.3-4.3-4.3c-3.2,0-4.4,2.2-4.6,5H165.6z M169.1,60.9l1.8,4.5c-2.4,1.5-5.8,2.6-8.9,2.6c-8.1,0-11.4-5.1-11.4-12.2
			c0-6.6,3.6-12.1,10.7-12.1c7.1,0,9.8,5.1,9.8,10.1c0,1.3-0.2,3-0.4,4h-14.1c0.1,3.3,1.8,5.3,5.4,5.3
			C164.6,62.9,166.9,62.2,169.1,60.9z M181.5,63.2c2.1,0,4.1-1,5.4-2.1v-3.6l-2.9,0.4c-4.1,0.5-5.3,1.3-5.3,3
			C178.7,62.4,179.7,63.2,181.5,63.2z M179.7,52.3h-5c-0.5-1-0.8-2-0.8-3.2c0-3.2,3-5.6,9.4-5.6c6.9,0,9.3,2,9.3,8.7v9
			c0,1,0.5,1.4,1.3,1.4c0.5,0,1-0.1,1.4-0.2v4.8c-1,0.2-2.2,0.3-3.3,0.3c-3,0-4.5-1.4-4.8-3.6c-1.3,1.9-3.8,3.8-7.7,3.8
			c-4.3,0-7-2.6-7-6.7c0-5.1,4.4-6.7,11.3-7.2l2.9-0.3V49c-0.8-0.2-2.5-0.3-3.5-0.3c-1.6,0-2.3,0.1-3.6,0.3V52.3z M204.7,59.9
			c0,1.9,1.1,2.7,2.7,2.7c0.8,0,2.4-0.2,3.5-0.4l0.2,5c-1.2,0.4-3.7,0.7-5.4,0.7c-4.7,0-6.6-3.1-6.6-7.2V49.1h-4.2v-4.4l4.2-0.5
			v-5.7l5.7-0.9v6.6h5.5v5h-5.5V59.9z M31.7,54.9c-7.2-2.6-10.9-3.4-12.3-3.6c0.8-1.3,1.7-2.4,2.8-3.5l26.2,0
			c1.6,1.5,2.8,3.3,3.8,5.3C49.7,55,42.8,59,31.7,54.9z M46.2,52.4h-4.6c-0.7,0-1.3,0.6-1.3,1.2c0,0.7,0.6,1.2,1.3,1.2h4.6
			c0.7,0,1.3-0.6,1.3-1.2C47.5,53,46.9,52.4,46.2,52.4z M46.2,60.1h-4.6c-0.7,0-1.3-0.6-1.3-1.2c0-0.7,0.6-1.2,1.3-1.2h4.6
			c0.7,0,1.3,0.6,1.3,1.2C47.5,59.5,46.9,60.1,46.2,60.1L46.2,60.1z M46.2,65.2h-4.6c-0.7,0-1.3-0.6-1.3-1.2s0.6-1.2,1.3-1.2h4.6
			c0.7,0,1.3,0.6,1.3,1.2S46.9,65.2,46.2,65.2L46.2,65.2z M46.2,70.3h-4.6c-0.7,0-1.3-0.6-1.3-1.2c0-0.7,0.6-1.2,1.3-1.2h4.6
			c0.7,0,1.3,0.6,1.3,1.2C47.5,69.8,46.9,70.3,46.2,70.3L46.2,70.3z M50.4,44.7l-0.5-0.5l-29,0l-0.5,0.5C15.7,48.9,13,55,13,61.3
			c0,6.3,2.7,12.3,7.3,16.6l0.5,0.5l29,0l0.5-0.5c4.7-4.2,7.3-10.3,7.3-16.6C57.7,55,55,48.9,50.4,44.7z M24.3,38.7l-0.1-0.2
			c-0.1-0.2-0.2-0.5-0.4-0.7c-0.1-0.1-0.1-0.2-0.2-0.3h0l-0.1-0.1c-0.8-1.2-1.8-2.5-2.7-3.2l-1.7-1.4l29.4,2.1
			c0.2,0,0.4,0.1,0.5,0.1l0.2,0.1l-0.1,0.2c0,0.1-0.1,0.3-0.2,0.4l-0.2,0.3c-0.5,0.8-1.5,2.7-1.9,3.4l-22.2,0
			C24.5,39.2,24.4,38.9,24.3,38.7z M59.3,44c-1.8-2.2-3.8-3.8-5.9-4.7l-3.2,0l0.1-0.1c0.4-0.7,1.1-1.9,1.1-2c1-1.5,1.3-2.7,0.8-3.6
			c-0.5-1-1.9-1.8-3.5-1.9l-30.5-2.2c-0.2,0-0.3,0-0.5,0c-1.9,0-2.5,0.9-2.7,1.5c-0.4,1,0.1,2.1,1.3,3.2c0,0,1.5,1.3,2.8,2.7
			c0.6,0.6,1.1,1.4,1.5,2.4l0.1,3.2l31,0c0,0,2.4,1,4.7,3.9c3.3,4.1,6.3,11.5,5,20.2h3.8C66.5,56.9,63.1,48.6,59.3,44L59.3,44z"/>
	</g>
</g>
</svg>
